<?xml version="1.0" encoding="UTF-8" standalone="no"?>
<svg xmlns:xlink="http://www.w3.org/1999/xlink" height="501.1px" width="1063.0px" xmlns="http://www.w3.org/2000/svg">
  <g transform="matrix(1.0, 0.0, 0.0, 1.0, 554.65, 240.1)">
    <path d="M-467.65 229.85 L-468.65 229.85 -470.65 229.85 -470.65 228.85 -468.65 228.85 -467.65 228.85 -467.65 229.85" fill="#e1e1e1" fill-rule="evenodd" stroke="none"/>
    <path d="M96.35 -230.15 Q105.7 -228.5 117.35 -228.45 L124.35 -228.25 131.35 -228.15 135.35 -228.15 136.35 -228.15 138.35 -228.15 139.35 -228.15 142.2 -228.6 142.35 -229.15 144.35 -229.15 145.35 -229.15 146.45 -228.35 147.35 -228.15 149.15 -228.55 Q149.35 -228.65 149.35 -229.15 L208.35 -229.15 218.35 -229.15 219.35 -229.15 220.35 -229.15 226.35 -229.15 227.35 -229.15 229.35 -229.15 230.35 -229.15 235.35 -229.15 236.35 -229.15 237.35 -229.15 238.35 -229.15 240.35 -229.15 241.35 -229.15 242.35 -229.15 243.35 -229.15 245.15 -229.55 Q245.35 -229.65 245.35 -230.15 265.4 -228.3 283.3 -229.65 L283.35 -230.15 Q286.45 -228.25 291.35 -228.15 L292.35 -228.15 293.45 -227.35 294.35 -227.15 295.35 -227.15 296.35 -227.15 297.35 -227.15 299.35 -227.15 300.35 -227.15 301.35 -227.15 305.35 -227.15 306.35 -227.15 308.15 -227.55 Q308.35 -227.65 308.35 -228.15 L311.35 -228.15 312.35 -228.15 Q313.15 -226.45 316.35 -227.05 L317.35 -227.15 318.35 -227.15 319.35 -227.15 331.35 -227.15 332.35 -227.15 Q332.85 -226.65 333.45 -226.35 L334.35 -226.15 336.35 -226.15 337.35 -226.15 338.35 -226.15 339.35 -226.15 342.35 -226.15 343.35 -226.15 Q351.1 -226.9 356.5 -225.95 L365.3 -224.6 378.35 -223.85 Q386.45 -223.7 392.35 -222.15 L393.35 -222.15 394.35 -222.15 400.35 -222.15 401.35 -222.15 Q401.25 -220.55 403.4 -221.05 L404.35 -221.15 Q417.85 -221.1 428.55 -219.1 433.35 -218.15 438.35 -218.15 438.25 -216.55 440.4 -217.05 L441.35 -217.15 442.35 -217.15 443.35 -217.15 Q454.3 -216.7 459.35 -217.1 L460.35 -217.15 Q460.25 -215.55 462.4 -216.05 L463.35 -216.15 489.35 -215.15 490.35 -215.15 Q501.3 -204.55 506.2 -188.1 L506.35 -187.15 Q506.35 -186.15 506.75 -185.35 L507.35 -185.15 Q507.4 -183.2 508.1 -182.0 L508.35 -181.15 507.35 -181.15 507.35 -178.15 507.35 -177.15 507.35 -175.15 507.35 -174.15 507.35 -173.15 507.35 -172.15 507.35 -171.15 Q506.65 -166.85 505.3 -163.15 501.55 -152.95 496.35 -144.15 L495.6 -143.9 Q491.75 -140.25 487.35 -137.15 L486.35 -137.05 Q476.65 -135.35 471.35 -129.15 L470.4 -129.0 Q455.65 -123.85 436.35 -123.15 L435.35 -123.15 432.35 -123.15 Q418.7 -122.5 407.35 -124.3 L384.35 -127.15 Q371.45 -120.55 356.2 -116.75 338.25 -112.25 318.35 -110.15 L318.15 -110.75 316.35 -111.15 316.35 -110.15 315.35 -110.2 303.35 -111.15 303.15 -111.75 Q302.35 -112.15 301.35 -112.15 L301.35 -111.15 Q295.45 -112.25 290.3 -113.95 283.8 -116.1 279.35 -115.15 L278.65 -114.9 274.35 -109.15 Q270.35 -107.65 266.6 -105.65 263.15 -103.85 259.15 -102.9 249.75 -100.75 239.45 -99.45 L234.25 -98.8 206.35 -96.15 205.35 -96.15 204.35 -96.15 204.35 -95.15 203.35 -95.1 Q194.9 -94.6 187.35 -93.15 L187.25 -93.7 183.35 -94.15 182.35 -94.15 181.35 -94.15 181.35 -93.15 180.85 -92.65 Q195.7 -78.0 207.9 -60.8 L208.85 -59.7 213.0 -55.85 217.05 -51.85 Q224.4 -44.2 232.05 -36.85 234.1 -34.9 235.55 -32.65 244.25 -19.05 256.3 -9.1 256.85 -8.65 257.4 -8.6 264.6 -7.9 265.35 -1.15 262.65 -1.35 262.8 0.8 L262.95 1.9 Q263.55 5.65 264.95 8.1 267.75 12.95 269.5 18.8 271.1 24.1 270.55 30.8 L269.35 46.85 Q265.45 50.95 263.15 56.75 260.2 64.2 255.65 70.3 249.25 78.75 243.35 87.85 245.95 91.25 244.95 97.8 244.15 102.65 243.5 107.85 242.0 119.0 239.9 128.95 238.55 135.55 235.0 139.55 224.7 151.2 207.35 155.85 L189.7 180.1 176.85 197.25 Q164.05 214.05 144.35 223.85 135.3 224.45 126.25 227.6 117.2 230.7 107.35 232.85 L106.5 232.85 106.35 232.85 105.35 232.85 105.35 233.3 103.9 234.05 89.35 234.85 Q86.2 235.7 83.9 237.15 69.75 246.5 52.75 252.7 L52.7 252.7 52.3 252.85 51.35 252.85 50.35 252.85 50.35 253.45 49.75 253.7 49.4 253.9 49.35 253.9 Q27.95 255.45 4.35 254.85 L3.35 254.85 1.35 254.85 1.35 255.1 -2.8 254.8 -9.1 254.7 -11.5 254.25 -16.7 253.9 -17.65 253.85 -17.65 253.9 -19.6 254.0 -20.65 253.85 -21.65 253.85 -22.65 253.85 -28.75 253.3 -31.7 252.95 -41.65 253.75 -48.7 254.35 Q-64.2 255.4 -75.65 251.85 -75.65 251.35 -75.9 251.2 -87.95 243.65 -90.65 226.85 L-90.85 225.95 -91.65 224.85 -91.65 223.85 -91.65 214.85 Q-90.2 211.8 -89.7 207.85 L-89.65 206.85 -88.85 205.75 -88.65 204.85 -88.65 203.85 -88.65 202.85 Q-79.4 182.65 -57.55 175.15 L-55.85 174.45 -55.65 173.85 Q-50.6 173.3 -47.65 174.35 L-47.65 173.85 Q-41.1 170.4 -35.45 166.15 -29.4 161.6 -19.65 160.85 -10.5 152.5 0.85 146.85 L0.35 146.85 0.15 146.25 -1.65 145.85 -1.65 146.85 -4.6 147.1 Q-11.35 148.15 -16.75 150.6 -32.0 157.5 -48.7 162.65 -60.3 166.2 -70.4 171.35 L-80.0 176.2 Q-90.2 181.3 -99.2 187.5 -100.85 188.65 -102.75 189.6 -122.55 199.45 -143.65 207.85 -164.75 216.25 -184.75 225.6 L-194.85 230.4 Q-214.8 240.2 -236.8 247.45 L-248.4 251.5 Q-259.05 255.45 -273.6 256.7 L-293.65 257.85 -294.65 257.85 -295.65 257.85 -295.65 258.85 -296.65 258.85 -324.65 259.85 -325.65 259.85 -326.65 259.85 -326.65 260.85 Q-341.15 261.35 -353.7 260.3 -381.25 257.95 -403.4 250.15 -408.65 248.35 -415.65 247.95 -420.95 247.65 -424.85 246.55 -442.45 241.65 -464.65 241.85 -464.65 241.35 -464.8 241.3 -466.15 240.85 -467.65 240.85 L-468.65 240.85 -471.65 240.85 -472.65 240.85 -473.65 240.85 Q-500.9 242.6 -524.65 247.85 -529.15 248.85 -533.45 250.45 -544.1 254.45 -554.65 258.85 L-554.65 257.85 -554.65 238.85 -550.65 238.85 -549.65 238.85 -547.85 238.45 -547.65 237.85 Q-538.25 237.25 -530.55 235.2 -524.8 233.7 -517.75 233.0 L-514.7 232.6 -507.65 231.85 -505.85 231.45 -505.65 230.85 -492.65 229.9 -491.65 229.85 -489.65 229.85 -488.65 229.85 Q-487.65 229.85 -486.85 229.45 -486.65 229.35 -486.65 228.85 L-484.65 228.85 -483.65 228.85 Q-483.8 230.5 -481.6 229.95 L-480.65 229.85 -471.65 229.85 -470.65 229.85 -468.65 229.85 -467.65 229.85 -466.65 229.85 -465.65 229.85 Q-464.4 228.65 -461.65 228.8 L-460.65 228.85 Q-460.8 230.5 -458.85 229.45 -458.65 229.35 -458.65 228.85 L-457.65 228.85 -456.55 229.65 -455.65 229.85 Q-445.25 229.45 -439.65 230.75 L-438.65 230.85 -437.65 230.85 -436.65 230.85 -435.65 230.85 -434.65 230.85 -433.65 230.85 -432.65 230.85 -423.65 230.85 -422.65 230.85 -421.55 231.65 -420.65 231.85 Q-409.2 234.9 -396.65 236.75 L-371.65 240.85 Q-371.8 242.5 -369.6 241.95 L-368.65 241.85 -348.65 242.85 -347.65 242.85 -346.55 243.65 -345.65 243.85 -334.65 243.85 -333.65 243.85 -332.65 243.85 -331.65 243.85 Q-326.65 242.35 -319.65 242.8 L-318.65 242.85 -316.85 242.45 -316.65 241.85 -305.6 241.3 -304.65 241.35 Q-294.15 241.85 -287.4 239.6 -285.15 238.85 -282.75 238.4 -277.2 237.3 -270.65 236.85 L-268.85 236.45 -268.65 235.85 -263.6 235.0 -262.65 234.85 -259.8 234.4 Q-259.65 234.35 -259.65 233.85 L-253.75 232.5 -253.15 232.35 Q-256.4 230.1 -262.65 230.85 L-263.65 230.85 -265.65 230.85 -266.65 230.85 -267.65 230.85 -267.65 231.85 -268.65 231.85 Q-283.25 232.1 -296.65 231.85 L-297.65 231.85 -298.65 231.85 -299.65 231.85 -300.65 231.85 -301.65 231.85 -303.65 231.85 -304.65 231.85 -305.65 231.85 -306.65 231.85 Q-329.3 232.0 -350.65 230.85 L-351.65 230.85 -352.65 230.85 -352.65 231.85 -353.65 231.9 Q-358.35 232.55 -357.65 227.85 -354.35 224.15 -348.65 222.95 -342.4 221.65 -335.65 220.85 -334.65 220.85 -333.85 220.45 -333.65 220.35 -333.65 219.85 L-328.65 219.85 -327.65 219.85 -325.85 219.45 -325.65 218.85 -321.65 218.85 -320.65 218.85 -317.8 218.4 Q-317.65 218.35 -317.65 217.85 -314.1 217.85 -311.6 217.0 L-310.65 216.85 Q-310.35 218.55 -307.85 217.45 L-307.65 216.85 -273.65 214.9 -272.65 214.85 Q-271.65 214.85 -270.85 214.45 -270.65 214.35 -270.65 213.85 L-245.65 212.9 -244.65 212.85 -242.85 212.45 Q-242.65 212.35 -242.65 211.85 -220.5 204.5 -200.5 195.15 -180.3 185.7 -156.9 178.95 L-144.5 175.35 Q-137.65 173.35 -131.65 170.85 L-129.85 170.45 Q-129.65 170.35 -129.65 169.85 -115.5 166.6 -106.6 163.0 L-105.65 162.85 Q-104.65 162.85 -103.85 162.45 L-103.65 161.85 Q-91.5 159.0 -81.35 154.6 -79.65 153.85 -77.8 153.35 -72.25 151.75 -67.4 149.35 -63.85 147.55 -60.0 146.3 L-56.6 146.1 Q-51.7 144.65 -46.65 144.1 L-44.65 143.95 -43.65 143.85 -42.85 143.8 -42.1 143.75 Q-41.25 143.7 -40.65 143.3 L-39.85 142.6 Q-33.9 141.55 -28.75 139.55 L-22.45 137.55 Q-19.75 136.9 -19.2 135.8 L-14.65 134.1 -14.55 134.1 Q-8.65 134.0 -3.0 132.3 L-1.25 132.0 12.95 132.45 17.7 132.85 Q24.75 134.65 33.35 134.85 L34.15 134.85 Q34.05 135.05 34.1 135.35 34.15 135.75 34.5 135.85 L34.75 135.9 35.8 136.1 Q38.45 136.4 41.2 136.0 53.95 137.75 65.4 140.55 L92.35 146.85 Q92.25 148.5 94.4 147.95 L95.35 147.85 Q97.0 149.2 100.35 148.9 L101.35 148.85 102.45 149.65 103.35 149.85 137.35 149.85 138.35 149.85 140.15 150.25 Q140.35 150.35 140.35 150.85 154.6 151.1 169.35 150.85 L170.35 150.85 173.2 150.4 173.35 149.85 Q187.7 149.7 199.15 146.15 207.2 143.7 214.25 139.65 216.4 138.4 219.35 137.85 223.35 131.85 229.5 128.05 L230.35 127.85 Q235.6 113.1 235.35 92.85 L235.35 91.85 236.15 90.75 236.35 89.85 236.3 88.85 Q235.25 81.45 233.35 74.85 230.35 71.35 226.95 68.25 221.95 63.7 218.35 57.85 211.2 56.5 205.15 54.45 L201.6 53.2 Q180.6 45.1 159.25 37.2 L157.5 36.45 Q147.35 31.85 136.65 27.15 126.5 22.7 114.35 19.85 L113.35 19.85 112.35 19.85 106.75 19.55 103.75 19.2 103.75 19.25 103.1 19.35 103.0 19.4 77.4 20.3 76.35 20.35 Q60.8 20.3 47.35 22.0 29.75 24.25 9.35 24.35 L8.45 24.3 -15.65 23.15 Q-28.25 23.5 -42.6 21.45 L-43.45 21.45 Q-46.5 22.5 -50.6 22.2 -65.45 21.15 -77.75 17.1 -100.0 9.7 -119.85 0.25 L-121.4 -0.6 Q-139.95 -11.35 -158.35 -22.7 -167.5 -28.3 -177.9 -32.5 -179.6 -33.2 -180.65 -33.2 -184.55 -33.25 -183.65 -37.15 -176.95 -39.75 -171.35 -36.65 -152.15 -26.15 -133.6 -15.3 -114.95 -4.35 -91.85 2.5 -85.25 4.45 -77.75 6.2 L-76.55 6.45 -72.65 6.85 Q-72.0 -4.8 -74.9 -13.05 -76.0 -16.3 -76.75 -20.15 -77.65 -24.65 -78.1 -29.2 -78.15 -29.65 -77.65 -30.15 -74.95 -32.3 -73.4 -28.25 -73.15 -27.65 -72.55 -27.35 -69.55 -25.75 -68.7 -21.35 L-67.65 -21.15 Q-59.1 -27.6 -52.35 -35.9 L-51.65 -36.15 Q-53.6 -30.1 -57.6 -26.1 -61.65 -22.15 -64.65 -17.15 -58.5 -15.15 -52.4 -17.45 -30.65 -25.65 -15.0 -39.45 -13.65 -40.65 -11.75 -41.4 L-10.55 -41.85 -8.65 -42.15 Q-9.7 -37.2 -13.6 -35.05 -17.75 -32.75 -19.65 -28.15 -14.9 -25.4 -6.65 -26.0 -4.7 -26.1 -3.65 -25.15 L-1.65 -25.15 -0.65 -25.15 Q22.2 -27.3 40.55 -33.55 L44.1 -34.85 Q48.85 -36.75 50.35 -33.15 L49.25 -32.35 Q44.6 -29.9 39.35 -28.2 L19.15 -21.75 15.7 -20.4 Q8.5 -17.0 -1.65 -16.15 L-2.65 -16.15 -3.45 -16.15 -4.3 -16.2 -4.3 -16.15 -4.9 -16.05 -5.35 -15.6 -5.7 -15.55 -8.7 -15.25 -31.65 -16.15 Q-31.65 -15.65 -31.9 -15.4 -42.3 -5.3 -57.65 -0.15 -56.0 3.7 -55.65 9.8 L-54.7 10.0 -29.5 13.95 -16.6 14.55 Q-7.55 13.95 0.4 14.35 L1.4 14.3 Q9.85 13.85 18.35 13.85 L19.35 13.85 20.35 13.85 21.65 13.65 24.45 13.1 24.95 12.65 77.35 9.05 84.35 8.85 Q83.05 -2.85 79.05 -11.5 77.85 -14.15 77.5 -17.15 L75.35 -34.15 75.65 -34.45 Q76.35 -34.35 76.55 -35.0 77.05 -36.3 77.1 -37.75 77.2 -40.0 75.6 -40.65 74.8 -42.25 75.35 -45.15 77.05 -50.45 79.1 -55.85 80.85 -60.65 84.35 -64.15 87.45 -62.9 85.55 -59.05 L85.35 -58.15 Q81.9 -52.6 79.5 -46.1 L79.35 -45.15 Q79.4 -39.2 82.55 -36.4 82.85 -36.15 83.35 -36.15 84.8 -19.1 93.85 -9.7 95.35 -8.15 96.5 -6.25 100.75 0.95 104.35 8.85 129.25 13.45 148.55 23.4 151.35 24.85 154.35 25.85 158.05 18.55 164.1 13.55 L164.35 12.85 Q167.45 15.1 165.1 20.2 164.4 21.8 164.35 22.85 164.35 23.85 163.35 24.85 162.4 25.9 162.35 27.85 166.7 31.0 172.2 33.25 193.1 41.6 214.0 50.6 233.65 59.05 242.35 78.85 252.55 59.55 260.9 38.65 262.4 34.9 262.35 29.85 254.1 8.6 240.85 -7.75 227.65 -23.95 212.7 -38.5 L197.75 -53.55 Q190.35 -61.15 183.9 -69.6 179.1 -75.9 173.1 -80.85 168.15 -84.95 164.5 -90.25 L163.35 -92.15 Q157.25 -94.05 149.35 -94.3 141.3 -94.6 135.35 -97.15 129.2 -96.3 124.4 -94.05 121.05 -92.5 116.4 -91.85 113.7 -91.5 114.35 -94.15 117.0 -98.0 119.3 -102.2 119.85 -103.2 116.2 -104.85 114.0 -105.8 112.35 -107.15 107.2 -109.4 111.65 -114.9 L112.35 -115.15 Q117.4 -116.1 122.5 -112.4 122.85 -112.15 123.35 -112.15 L124.35 -112.15 125.35 -112.15 Q136.5 -110.3 146.4 -107.3 L147.35 -107.15 148.35 -107.15 149.35 -107.15 150.35 -107.15 151.35 -107.15 152.35 -107.15 153.35 -107.15 Q167.35 -106.8 181.35 -107.15 L182.05 -107.15 183.5 -107.0 Q184.2 -107.05 184.35 -107.7 L184.45 -108.15 194.35 -108.15 195.35 -108.15 196.25 -108.15 201.7 -108.3 Q202.3 -108.5 202.75 -108.85 L203.05 -109.05 Q213.45 -108.0 226.5 -110.3 L236.25 -111.9 246.2 -113.8 260.25 -116.7 Q263.65 -117.35 266.35 -119.2 268.4 -120.6 271.35 -121.15 273.0 -124.5 275.6 -126.9 L276.35 -127.15 Q281.65 -127.75 287.5 -125.6 296.15 -122.45 307.35 -122.3 L329.35 -122.15 329.95 -122.15 331.45 -122.25 333.25 -122.6 333.35 -122.85 333.5 -122.95 334.0 -123.2 Q347.6 -124.2 358.6 -127.3 366.5 -129.5 373.3 -132.3 379.6 -134.9 383.35 -140.15 386.05 -141.8 390.25 -139.9 399.8 -135.6 413.35 -135.15 413.25 -133.55 415.4 -134.05 L416.35 -134.15 Q425.45 -134.75 432.35 -133.25 L433.35 -133.15 435.15 -133.55 435.35 -134.15 Q463.9 -135.1 480.65 -147.75 484.4 -150.55 489.35 -152.15 495.8 -162.2 497.9 -176.2 L498.35 -182.15 498.15 -183.05 497.35 -184.15 497.2 -185.1 491.35 -199.15 Q490.85 -199.15 490.55 -199.4 481.35 -207.65 462.35 -206.15 L461.35 -206.15 460.35 -206.15 460.35 -205.15 Q459.85 -205.15 459.5 -205.4 458.3 -206.1 456.35 -206.15 L455.35 -206.15 454.35 -206.15 453.35 -206.15 443.35 -206.15 442.45 -205.95 Q439.15 -204.35 438.35 -200.15 439.9 -194.2 445.45 -192.55 L448.15 -191.65 461.25 -185.9 462.45 -185.5 Q467.55 -184.35 466.35 -182.15 463.6 -178.95 457.5 -181.5 453.05 -183.35 447.45 -184.65 438.05 -186.85 431.35 -192.15 L430.85 -192.2 Q429.6 -200.9 426.35 -207.15 L426.3 -207.65 Q407.35 -210.15 387.35 -211.15 L387.15 -211.75 385.35 -212.15 384.35 -212.15 383.35 -212.15 382.35 -212.2 351.35 -214.15 351.2 -214.7 348.35 -215.15 347.35 -215.15 336.35 -215.15 336.15 -215.75 334.35 -216.15 334.35 -215.15 333.35 -215.15 333.15 -215.75 331.35 -216.15 330.35 -216.15 329.35 -216.15 328.35 -216.25 Q318.1 -218.1 309.35 -217.15 L309.15 -217.75 307.35 -218.15 306.4 -218.0 301.35 -216.15 300.35 -216.15 299.35 -216.15 299.35 -215.15 Q292.3 -216.6 284.35 -217.15 L242.35 -219.15 241.35 -219.15 240.35 -219.15 240.35 -218.15 Q211.35 -217.85 186.35 -217.85 173.95 -217.85 158.35 -218.15 L158.2 -218.7 155.35 -219.15 155.35 -218.15 154.35 -218.15 153.35 -218.15 153.15 -218.75 151.35 -219.15 151.35 -218.15 Q138.35 -218.15 125.35 -217.65 L102.25 -218.6 101.35 -218.65 Q86.3 -218.1 72.35 -219.15 L72.15 -219.75 70.35 -220.15 69.35 -220.25 56.35 -221.15 Q56.35 -221.65 56.15 -221.75 L54.35 -222.15 Q46.1 -221.9 39.35 -223.25 L25.25 -225.4 15.3 -227.0 Q3.0 -229.8 -10.7 -230.55 L-24.65 -232.15 -25.65 -232.15 -27.65 -232.15 -27.65 -231.15 -30.7 -231.25 -40.65 -231.85 Q-46.75 -232.05 -51.65 -230.15 L-52.65 -230.15 -53.65 -230.15 Q-62.75 -227.25 -71.4 -223.5 -86.5 -217.0 -99.75 -208.3 -108.85 -202.35 -118.95 -197.75 -121.9 -196.4 -125.4 -195.35 L-136.6 -191.9 Q-142.15 -190.15 -147.5 -187.8 -167.8 -178.8 -185.2 -166.95 -193.1 -161.6 -201.45 -156.8 -214.4 -149.4 -227.7 -142.25 L-247.0 -131.8 Q-266.3 -121.3 -286.4 -111.65 L-325.85 -92.5 Q-345.75 -82.75 -365.75 -73.35 L-376.25 -68.35 Q-395.85 -58.85 -420.5 -53.4 L-422.8 -52.95 Q-436.05 -50.55 -448.5 -47.6 -472.1 -42.1 -497.65 -38.15 L-498.65 -38.15 -499.65 -38.15 -499.65 -37.15 -500.65 -37.05 Q-516.5 -34.5 -533.65 -33.15 L-534.65 -33.15 -535.65 -33.15 -535.65 -32.15 -536.65 -32.2 Q-545.65 -32.65 -552.65 -31.15 -552.65 -31.65 -552.85 -31.75 L-554.65 -32.15 -554.65 -33.15 -554.65 -38.15 -554.65 -39.15 -554.65 -43.15 -554.65 -44.15 -554.65 -45.8 -554.65 -50.15 Q-549.8 -52.35 -546.45 -49.4 -546.15 -49.15 -545.65 -49.15 L-543.85 -48.75 Q-543.65 -48.65 -543.65 -48.15 L-531.65 -50.1 -530.65 -50.15 -530.65 -51.15 -529.65 -51.15 -528.65 -51.15 -523.65 -51.15 -522.65 -51.15 -522.65 -52.15 -519.65 -52.15 -518.65 -52.15 -514.65 -52.15 -513.65 -52.15 -513.65 -53.15 -512.65 -53.15 -511.65 -53.15 -507.65 -53.15 -506.65 -53.15 -504.65 -53.15 -503.65 -53.15 -499.65 -53.15 -498.65 -53.15 -497.65 -53.15 -496.65 -53.15 -491.85 -54.0 Q-472.75 -57.6 -454.6 -62.05 -442.5 -65.0 -431.55 -68.85 -409.55 -76.55 -386.75 -83.5 -370.05 -88.55 -354.5 -94.75 -346.45 -97.95 -339.35 -101.6 -329.3 -106.8 -318.8 -111.45 L-277.75 -129.4 Q-257.25 -138.25 -236.95 -147.85 -226.0 -153.0 -215.3 -158.5 -205.2 -163.7 -195.65 -169.15 -186.1 -174.6 -178.1 -181.55 L-171.75 -186.35 Q-153.9 -197.9 -129.8 -203.85 -124.2 -205.2 -119.5 -207.85 -100.45 -218.45 -81.4 -228.7 -62.05 -239.05 -33.65 -239.95 -18.4 -240.4 -4.65 -239.25 2.3 -238.65 8.4 -237.35 16.0 -235.8 25.35 -235.65 L26.4 -235.55 Q39.55 -233.35 54.35 -233.35 62.05 -233.35 68.3 -232.0 74.0 -230.8 81.35 -231.15 81.25 -229.55 83.4 -230.05 L84.35 -230.15 93.35 -230.15 94.35 -230.15 Q94.25 -228.55 96.15 -229.55 L96.35 -230.15 M84.35 -118.15 L86.15 -118.55 Q86.35 -118.65 86.35 -119.15 90.85 -118.6 88.05 -115.45 L87.0 -113.85 Q85.4 -110.1 82.35 -108.15 L81.45 -107.95 Q78.6 -106.4 73.35 -107.15 L71.15 -105.55 Q67.35 -103.65 63.7 -101.5 59.15 -98.85 54.2 -96.45 L33.55 -86.7 Q28.85 -84.55 27.35 -88.15 31.5 -93.0 39.35 -94.1 L40.35 -94.15 Q46.6 -102.9 56.95 -107.95 62.75 -110.75 68.55 -113.75 74.65 -116.85 82.35 -118.15 L83.35 -118.15 84.35 -118.15 M181.35 134.85 L178.35 134.7 Q168.85 133.85 161.2 131.25 L154.4 128.75 152.55 128.55 147.35 128.85 146.7 128.6 Q143.85 124.35 142.35 118.85 144.75 116.75 148.3 115.65 L150.35 114.85 Q158.05 104.05 159.5 86.85 160.1 80.1 159.5 72.95 L159.1 69.9 Q158.2 63.2 161.35 60.85 165.9 63.8 166.9 69.9 169.3 84.1 165.95 96.75 164.15 103.65 162.9 110.95 L162.85 111.85 Q162.7 117.9 163.35 121.85 171.65 127.05 183.3 129.1 186.1 129.6 184.65 133.6 184.35 134.3 183.5 134.8 182.6 134.5 181.5 134.8 L181.5 134.85 181.35 134.85 M90.35 223.85 L117.3 220.5 Q121.85 219.85 126.15 218.3 131.45 216.45 137.45 215.25 150.2 212.7 157.05 204.4 L171.65 186.3 176.9 179.2 Q181.15 173.15 186.15 167.7 L189.35 163.85 180.15 164.1 169.35 166.85 168.35 166.85 167.35 166.85 Q141.65 167.55 119.3 165.25 L111.5 164.15 Q105.6 163.1 98.35 162.8 83.95 162.25 71.35 159.85 71.35 159.35 71.15 159.25 70.35 158.85 69.35 158.85 L68.4 158.7 Q63.65 156.8 60.35 159.1 L59.6 159.05 58.7 159.15 57.35 159.3 57.25 158.9 Q56.6 156.1 52.35 156.85 L52.15 156.25 50.35 155.85 49.45 155.65 Q41.65 152.05 32.35 149.85 L31.4 150.0 Q23.3 152.8 13.35 153.85 L12.35 153.85 11.35 153.85 11.35 154.85 10.35 154.85 8.35 154.85 7.35 154.85 6.35 154.85 6.35 155.85 Q-3.25 159.8 -10.35 166.2 -12.15 167.85 -13.05 170.1 -14.9 174.6 -18.65 176.85 L-18.65 177.85 Q-18.85 182.2 -20.65 184.85 -22.05 215.75 -3.3 226.25 -0.95 227.55 -0.65 225.85 L0.15 224.75 0.35 223.85 0.35 222.85 0.35 220.85 Q5.65 209.65 18.4 206.0 L19.35 205.85 Q18.3 213.8 12.5 217.15 6.55 220.55 6.35 229.85 6.35 230.85 6.75 231.65 6.85 231.85 7.35 231.85 L13.55 233.15 20.55 233.45 21.35 233.35 Q33.4 232.85 43.35 230.95 48.9 229.9 53.45 228.15 L58.5 226.25 Q60.9 225.4 60.35 221.85 61.15 214.55 58.05 211.1 L57.35 210.85 Q49.9 208.3 42.2 206.5 L36.4 205.45 35.35 204.85 35.35 203.85 35.35 202.85 35.35 201.85 35.35 200.85 36.35 200.85 37.35 200.85 38.35 200.85 Q55.85 200.35 64.6 208.6 L65.35 208.85 Q68.75 216.95 71.2 225.9 L71.35 226.85 Q80.1 226.6 87.35 224.95 L88.35 224.85 90.15 224.45 90.35 223.85 M44.35 245.85 Q48.55 246.55 50.35 244.85 L50.85 244.35 Q43.4 243.4 38.35 245.85 38.25 247.5 40.4 246.95 L41.35 246.85 44.2 246.4 44.35 245.85 M6.35 244.85 L4.3 244.1 Q-1.85 242.6 -8.65 241.85 -17.45 236.65 -22.85 227.95 -28.15 219.35 -32.65 209.85 -32.65 206.35 -32.8 202.85 -33.25 191.75 -30.15 184.05 -28.55 180.0 -29.65 177.85 -30.15 177.85 -30.45 178.1 -42.0 188.0 -47.65 203.85 L-47.65 210.85 -47.65 211.85 -47.65 212.85 -47.65 213.85 Q-45.5 226.7 -38.15 234.35 L-36.9 235.25 Q-27.0 240.7 -13.65 242.85 L-12.55 243.65 -11.65 243.85 -2.7 244.8 Q-2.15 244.85 -1.35 245.5 0.8 247.4 5.35 246.85 8.0 247.5 6.95 245.05 6.85 244.85 6.35 244.85 M29.35 245.85 L29.35 246.35 Q33.2 246.35 29.35 245.85 M-198.65 216.85 Q-176.8 209.2 -158.4 198.3 L-156.8 197.5 Q-146.5 193.0 -134.6 190.15 -130.35 189.15 -127.65 186.85 L-127.65 185.85 -128.6 186.0 Q-131.1 186.85 -134.65 186.85 -134.65 187.35 -134.85 187.45 L-136.65 187.85 Q-146.8 189.7 -154.65 193.85 -162.85 198.15 -171.75 201.5 -172.65 201.85 -173.25 202.35 -177.4 205.6 -184.65 205.85 L-184.9 206.55 Q-191.4 212.1 -199.65 215.85 L-199.65 216.85 -200.6 217.0 Q-212.1 220.9 -224.65 223.85 L-224.65 224.85 -224.65 225.85 Q-224.8 227.5 -222.85 226.45 -222.65 226.35 -222.65 225.85 -210.1 222.4 -198.85 217.45 -198.65 217.35 -198.65 216.85 M-60.65 197.85 L-60.05 197.65 -59.2 196.1 Q-57.95 194.05 -56.75 191.25 -55.0 187.05 -55.65 184.85 -63.7 188.3 -69.25 194.25 -74.55 199.95 -78.65 206.85 L-78.6 207.85 Q-77.25 221.4 -71.65 234.85 L-70.8 235.1 Q-60.35 242.55 -46.65 246.85 L-46.15 246.85 Q-47.9 242.1 -52.65 239.85 -52.65 239.35 -52.8 238.9 -54.1 234.3 -57.65 231.85 L-57.75 230.85 Q-61.1 214.9 -60.65 197.85 M-241.65 230.35 Q-237.8 230.35 -241.65 229.85 L-241.65 230.35 M-238.65 229.35 Q-234.8 229.35 -238.65 228.85 L-238.65 229.35 M-248.65 229.85 L-249.65 229.85 -250.65 229.85 -250.65 230.85 -251.65 230.85 Q-251.35 232.55 -248.65 231.95 L-247.65 231.85 -246.9 231.6 Q-246.65 231.35 -246.65 230.85 L-245.65 230.75 Q-241.65 230.05 -246.65 229.85 L-247.65 229.85 -248.65 229.85" fill="#000000" fill-rule="evenodd" stroke="none"/>
    <path d="M183.35 -93.15 L182.35 -93.15 181.35 -93.15 181.35 -94.15 182.35 -94.15 183.35 -94.15 183.35 -93.15 M103.35 149.85 L102.45 149.65 101.35 148.85 102.05 148.9 Q102.1 149.5 102.7 149.65 L103.35 149.7 103.35 149.85" fill="#616161" fill-rule="evenodd" stroke="none"/>
    <path d="M-3.45 -16.15 L-2.65 -16.15 -1.65 -16.15 -1.65 -15.95 -3.45 -16.15 M236.35 89.85 L236.15 90.75 235.35 91.85 235.35 90.85 235.35 89.85 236.35 89.85 M-242.65 211.85 Q-242.65 212.35 -242.85 212.45 L-244.65 212.85 -244.65 211.85 -243.65 211.85 -242.65 211.85 M-270.65 213.85 Q-270.65 214.35 -270.85 214.45 -271.65 214.85 -272.65 214.85 L-272.65 213.85 -271.65 213.85 -270.65 213.85 M-307.65 216.85 L-307.85 217.45 Q-310.35 218.55 -310.65 216.85 L-308.65 216.85 -307.65 216.85 M147.35 -107.15 L147.35 -107.7 149.35 -107.5 149.35 -107.15 148.35 -107.15 147.35 -107.15 M181.5 134.85 L181.35 134.9 181.35 134.85 181.5 134.85 M52.35 156.85 L51.45 156.65 50.35 155.85 52.15 156.25 52.35 156.85 M6.35 229.85 L7.15 230.95 7.35 231.85 Q6.85 231.85 6.75 231.65 6.35 230.85 6.35 229.85" fill="#9b9b9b" fill-rule="evenodd" stroke="none"/>
    <path d="M20.35 13.85 L19.35 13.85 18.35 13.85 18.35 13.7 20.35 13.75 20.35 13.85 M-333.65 219.85 Q-333.65 220.35 -333.85 220.45 -334.65 220.85 -335.65 220.85 L-335.65 219.85 -334.65 219.85 -333.65 219.85 M-303.65 231.85 L-301.65 231.85 -300.65 231.85 -300.65 232.85 -301.65 232.85 -303.65 232.85 -303.65 231.85 M195.35 -108.15 L195.35 -108.5 196.25 -108.15 195.35 -108.15 M-0.65 225.85 L-0.65 224.85 -0.65 223.85 0.35 223.85 0.15 224.75 -0.65 225.85" fill="#b2b2b2" fill-rule="evenodd" stroke="none"/>
    <path d="M-316.65 241.85 L-316.85 242.45 -318.65 242.85 -318.65 241.85 -317.65 241.85 -316.65 241.85" fill="#e0e0e0" fill-rule="evenodd" stroke="none"/>
    <path d="M-293.65 257.85 Q-293.65 258.35 -293.85 258.45 L-295.65 258.85 -295.65 257.85 -294.65 257.85 -293.65 257.85 M242.35 -219.15 Q242.35 -218.65 242.15 -218.55 241.35 -218.15 240.35 -218.15 L240.35 -219.15 241.35 -219.15 242.35 -219.15 M-298.65 231.85 L-297.65 231.85 -296.65 231.85 Q-296.65 232.35 -296.85 232.45 L-298.65 232.85 -298.65 231.85 M-458.65 228.85 Q-458.65 229.35 -458.85 229.45 -460.8 230.5 -460.65 228.85 L-459.65 228.85 -458.65 228.85 M336.35 -215.15 L335.35 -215.15 334.35 -215.15 334.35 -216.15 336.15 -215.75 336.35 -215.15 M13.35 153.85 L13.15 154.45 Q12.35 154.85 11.35 154.85 L11.35 153.85 12.35 153.85 13.35 153.85 M-250.65 230.85 L-250.65 229.85 -249.65 229.85 -248.65 229.85 -248.65 230.85 -249.65 230.85 -250.65 230.85" fill="#323232" fill-rule="evenodd" stroke="none"/>
    <path d="M75.65 -34.45 L75.35 -34.15 75.35 -34.5 75.65 -34.45" fill="#848484" fill-rule="evenodd" stroke="none"/>
    <path d="M56.35 -221.15 L55.45 -221.35 Q54.85 -221.65 54.35 -222.15 L56.15 -221.75 Q56.35 -221.65 56.35 -221.15 M-129.65 169.85 Q-129.65 170.35 -129.85 170.45 L-131.65 170.85 -131.65 170.65 -131.6 170.65 -130.65 170.5 -129.95 169.85 -129.65 169.85 M-305.65 231.85 L-304.65 231.85 -303.65 231.85 -303.65 232.85 -304.55 232.65 -305.65 231.85 M123.35 -112.15 L123.35 -112.65 125.3 -112.55 125.35 -112.15 124.35 -112.15 123.35 -112.15 M88.35 224.85 L88.35 223.85 89.35 223.85 90.35 223.85 90.15 224.45 88.35 224.85 M29.35 245.85 Q33.2 246.35 29.35 246.35 L29.35 245.85" fill="#a6a6a6" fill-rule="evenodd" stroke="none"/>
    <path d="M-300.65 231.85 L-299.65 231.85 -298.65 231.85 -298.65 232.85 -299.65 232.85 -300.65 232.85 -300.65 231.85 M-259.65 233.85 Q-259.65 234.35 -259.8 234.4 L-262.65 234.85 -262.65 233.85 -260.65 233.85 -259.65 233.85 M-436.65 230.85 L-437.65 230.85 -438.65 230.85 -438.65 229.85 Q-437.65 229.85 -436.85 230.25 L-436.65 230.85 M-480.65 229.85 L-481.6 229.95 Q-483.8 230.5 -483.65 228.85 L-480.8 229.3 Q-480.65 229.35 -480.65 229.85 M36.35 200.85 L36.35 199.85 38.15 200.25 Q38.35 200.35 38.35 200.85 L37.35 200.85 36.35 200.85" fill="#f8f8f8" fill-rule="evenodd" stroke="none"/>
    <path d="M292.35 -228.15 Q293.35 -228.15 294.15 -227.75 L294.35 -227.15 293.45 -227.35 292.35 -228.15 M303.35 -111.15 L302.35 -111.15 301.35 -111.15 301.35 -112.15 Q302.35 -112.15 303.15 -111.75 L303.35 -111.15 M52.3 252.85 L50.35 253.45 50.35 252.85 51.35 252.85 52.3 252.85" fill="#272727" fill-rule="evenodd" stroke="none"/>
    <path d="M-24.65 -232.15 Q-24.65 -231.65 -24.8 -231.6 L-27.65 -231.15 -27.65 -232.15 -25.65 -232.15 -24.65 -232.15 M301.35 -216.15 L301.15 -215.55 Q300.35 -215.15 299.35 -215.15 L299.35 -216.15 300.35 -216.15 301.35 -216.15 M-352.65 231.85 L-352.65 230.85 -351.65 230.85 -350.65 230.85 Q-350.65 231.35 -350.85 231.45 L-352.65 231.85 M498.35 -182.15 L497.75 -182.35 Q497.35 -183.15 497.35 -184.15 L498.15 -183.05 498.35 -182.15 M462.35 -206.15 L462.15 -205.55 460.35 -205.15 460.35 -206.15 461.35 -206.15 462.35 -206.15 M333.35 -215.15 L332.35 -215.15 331.35 -215.15 331.35 -216.15 333.15 -215.75 333.35 -215.15" fill="#555555" fill-rule="evenodd" stroke="none"/>
    <path d="M206.35 -96.15 Q206.35 -95.65 206.15 -95.55 205.35 -95.15 204.35 -95.15 L204.35 -96.15 205.35 -96.15 206.35 -96.15 M309.35 -217.15 L308.45 -217.35 307.35 -218.15 309.15 -217.75 309.35 -217.15 M-13.65 242.85 Q-12.65 242.85 -11.85 243.25 -11.65 243.35 -11.65 243.85 L-12.55 243.65 -13.65 242.85" fill="#4a4a4a" fill-rule="evenodd" stroke="none"/>
    <path d="M72.35 -219.15 L71.45 -219.35 Q70.85 -219.65 70.35 -220.15 L72.15 -219.75 72.35 -219.15" fill="#ececec" fill-rule="evenodd" stroke="none"/>
    <path d="M95.35 147.85 L94.4 147.95 Q92.25 148.5 92.35 146.85 L95.2 147.3 95.35 147.85" fill="#e8e8e8" fill-rule="evenodd" stroke="none"/>
    <path d="M94.35 -230.15 L95.35 -230.15 96.35 -230.15 96.15 -229.55 Q94.25 -228.55 94.35 -230.15 M153.35 -218.15 L152.35 -218.15 151.35 -218.15 151.35 -219.15 153.15 -218.75 153.35 -218.15 M21.65 13.65 L20.35 13.85 20.35 13.75 21.65 13.65 M-241.65 230.35 L-241.65 229.85 Q-237.8 230.35 -241.65 230.35" fill="#101010" fill-rule="evenodd" stroke="none"/>
    <path d="M387.35 -211.15 L386.35 -211.15 385.35 -211.15 385.35 -212.15 387.15 -211.75 387.35 -211.15" fill="#787878" fill-rule="evenodd" stroke="none"/>
    <path d="M-497.65 -38.15 Q-497.65 -37.65 -497.85 -37.55 -498.65 -37.15 -499.65 -37.15 L-499.65 -38.15 -498.65 -38.15 -497.65 -38.15 M-455.65 229.85 L-456.55 229.65 -457.65 228.85 -455.85 229.25 Q-455.65 229.35 -455.65 229.85 M-238.65 229.35 L-238.65 228.85 Q-234.8 229.35 -238.65 229.35" fill="#3e3e3e" fill-rule="evenodd" stroke="none"/>
    <path d="M5.35 246.85 L5.35 245.85 6.1 245.6 6.35 244.85 Q6.85 244.85 6.95 245.05 8.0 247.5 5.35 246.85" fill="#aaaaaa" fill-rule="evenodd" stroke="none"/>
    <path d="M86.35 -119.15 Q86.35 -118.65 86.15 -118.55 L84.35 -118.15 84.35 -119.15 85.35 -119.15 86.35 -119.15 M-103.65 161.85 L-103.85 162.45 Q-104.65 162.85 -105.65 162.85 L-105.65 162.6 -105.6 162.6 -104.65 162.5 -103.95 161.85 -103.65 161.85 M-317.65 217.85 Q-317.65 218.35 -317.8 218.4 L-320.65 218.85 -320.65 217.85 -318.65 217.85 -317.65 217.85 M151.35 -107.15 L151.35 -107.3 153.35 -107.2 153.35 -107.15 152.35 -107.15 151.35 -107.15 M456.35 -206.15 L456.15 -205.55 Q454.25 -204.55 454.35 -206.15 L455.35 -206.15 456.35 -206.15 M385.35 -211.15 L384.45 -211.35 383.35 -212.15 384.35 -212.15 385.35 -212.15 385.35 -211.15 M351.35 -214.15 L350.4 -214.05 Q348.25 -213.55 348.35 -215.15 L351.2 -214.7 351.35 -214.15 M35.35 204.85 Q34.85 204.85 34.75 204.65 34.35 203.85 34.35 202.85 L35.35 202.85 35.35 203.85 35.35 204.85" fill="#c9c9c9" fill-rule="evenodd" stroke="none"/>
    <path d="M318.35 -110.15 L317.35 -110.15 316.35 -110.15 316.35 -111.15 318.15 -110.75 318.35 -110.15 M0.35 146.85 L-0.65 146.85 -1.65 146.85 -1.65 145.85 0.15 146.25 0.35 146.85 M84.35 -119.15 L84.35 -118.15 83.35 -118.15 82.35 -118.15 82.35 -119.15 83.35 -119.15 84.35 -119.15 M112.35 19.85 L113.35 19.85 114.35 19.85 114.35 20.2 112.35 20.05 112.35 19.85 M-267.65 231.85 L-267.65 230.85 -266.65 230.85 -265.65 230.85 -265.65 231.85 -266.65 231.85 -267.65 231.85 M-222.65 225.85 Q-222.65 226.35 -222.85 226.45 -224.8 227.5 -224.65 225.85 L-223.65 225.85 -222.65 225.85" fill="#8f8f8f" fill-rule="evenodd" stroke="none"/>
    <path d="M-51.65 -230.15 Q-51.65 -229.65 -51.85 -229.55 -53.8 -228.55 -53.65 -230.15 L-52.65 -230.15 -51.65 -230.15 M-325.65 218.85 L-325.85 219.45 -327.65 219.85 -327.65 218.85 -326.65 218.85 -325.65 218.85 M-268.65 235.85 L-268.85 236.45 -270.65 236.85 -270.65 235.85 -269.65 235.85 -268.65 235.85 M433.35 -133.15 L433.35 -134.15 434.35 -134.15 435.35 -134.15 435.15 -133.55 433.35 -133.15 M-42.65 138.85 Q-40.75 141.3 -42.4 139.6 L-42.65 138.85" fill="#d5d5d5" fill-rule="evenodd" stroke="none"/>
    <path d="M187.35 -93.15 L186.35 -93.15 183.35 -93.15 183.35 -94.15 187.25 -93.7 187.35 -93.15" fill="#959595" fill-rule="evenodd" stroke="none"/>
    <path d="M-42.85 143.8 L-43.65 143.85 -42.85 143.8 M-331.65 243.85 L-332.65 243.85 -333.65 243.85 -333.65 242.85 -331.85 243.25 -331.65 243.85 M331.35 -215.15 L330.45 -215.35 329.35 -216.15 330.35 -216.15 331.35 -216.15 331.35 -215.15" fill="#bebebe" fill-rule="evenodd" stroke="none"/>
    <path d="M-324.65 259.85 Q-324.65 260.35 -324.85 260.45 -325.65 260.85 -326.65 260.85 L-326.65 259.85 -325.65 259.85 -324.65 259.85 M413.35 -135.15 L416.2 -134.7 416.35 -134.15 415.4 -134.05 Q413.25 -133.55 413.35 -135.15 M8.35 154.85 Q8.35 155.35 8.15 155.45 7.35 155.85 6.35 155.85 L6.35 154.85 7.35 154.85 8.35 154.85" fill="#6c6c6c" fill-rule="evenodd" stroke="none"/>
    <path d="M329.35 -122.15 L329.35 -122.2 329.95 -122.15 329.35 -122.15 M331.45 -122.25 L333.35 -122.85 333.25 -122.6 331.45 -122.25" fill="#727272" fill-rule="evenodd" stroke="none"/>
    <path d="M173.35 149.85 L173.2 150.4 170.35 150.85 170.35 149.85 172.35 149.85 173.35 149.85 M-250.65 230.85 L-249.65 230.85 -248.65 230.85 Q-248.15 230.85 -247.9 231.1 -247.65 231.35 -247.65 231.85 L-248.65 231.95 Q-251.35 232.55 -251.65 230.85 L-250.65 230.85" fill="#f0f0f0" fill-rule="evenodd" stroke="none"/>
    <path d="M71.35 159.85 L70.45 159.65 69.35 158.85 Q70.35 158.85 71.15 159.25 71.35 159.35 71.35 159.85" fill="#494949" fill-rule="evenodd" stroke="none"/>
    <path d="M44.35 245.85 L44.2 246.4 41.35 246.85 41.35 245.85 43.35 245.85 44.35 245.85" fill="#7c7c7c" fill-rule="evenodd" stroke="none"/>
    <path d="M41.35 246.85 L40.4 246.95 Q38.25 247.5 38.35 245.85 43.4 243.4 50.85 244.35 L50.35 244.85 Q48.55 246.55 44.35 245.85 L43.35 245.85 41.35 245.85 41.35 246.85" fill="#eeeeee" fill-rule="evenodd" stroke="none"/>
    <path d="M-246.65 229.85 Q-241.65 230.05 -245.65 230.75 L-246.65 230.85 -246.65 229.85" fill="#838383" fill-rule="evenodd" stroke="none"/>
    <path d="M-0.65 -25.15 L-1.65 -25.15 -3.65 -25.15 -3.65 -26.05 Q-2.4 -25.2 -0.65 -25.35 L-0.65 -25.15" fill="#5d5d5d" fill-rule="evenodd" stroke="none"/>
    <path d="M-199.65 216.85 L-199.65 215.85 Q-191.4 212.1 -184.9 206.55 L-184.65 205.85 Q-177.4 205.6 -173.25 202.35 -172.65 201.85 -171.75 201.5 -162.85 198.15 -154.65 193.85 -146.8 189.7 -136.65 187.85 L-134.85 187.45 Q-134.65 187.35 -134.65 186.85 -131.1 186.85 -128.6 186.0 L-127.65 185.85 -127.65 186.85 Q-130.35 189.15 -134.6 190.15 -146.5 193.0 -156.8 197.5 L-158.4 198.3 Q-176.8 209.2 -198.65 216.85 L-199.65 216.85" fill="#f9f9f9" fill-rule="evenodd" stroke="none"/>
    <path d="M-248.65 230.85 L-248.65 229.85 -247.65 229.85 -246.65 229.85 -246.65 230.85 Q-246.65 231.35 -246.9 231.6 L-247.65 231.85 Q-247.65 231.35 -247.9 231.1 -248.15 230.85 -248.65 230.85" fill="#a2a2a2" fill-rule="evenodd" stroke="none"/>
    <path d="M-198.65 216.85 Q-198.65 217.35 -198.85 217.45 -210.1 222.4 -222.65 225.85 L-223.65 225.85 -224.65 225.85 -224.65 224.85 -224.65 223.85 Q-212.1 220.9 -200.6 217.0 L-199.65 216.85 -198.65 216.85" fill="#fbfbfb" fill-rule="evenodd" stroke="none"/>
    <path d="M-265.65 230.85 L-263.65 230.85 -262.65 230.85 Q-262.65 231.35 -262.8 231.4 L-265.65 231.85 -265.65 230.85" fill="#4d4d4d" fill-rule="evenodd" stroke="none"/>
    <path d="M-554.65 238.85 L-554.65 204.85 -554.65 145.85 -554.65 86.85 -554.65 27.85 -554.65 -31.15 -554.65 -32.15 -552.85 -31.75 Q-552.65 -31.65 -552.65 -31.15 -545.65 -32.65 -536.65 -32.2 L-535.65 -32.15 -535.65 -33.15 -534.65 -33.15 -533.65 -33.15 Q-516.5 -34.5 -500.65 -37.05 L-499.65 -37.15 Q-498.65 -37.15 -497.85 -37.55 -497.65 -37.65 -497.65 -38.15 -472.1 -42.1 -448.5 -47.6 -436.05 -50.55 -422.8 -52.95 L-420.5 -53.4 Q-395.85 -58.85 -376.25 -68.35 L-365.75 -73.35 Q-345.75 -82.75 -325.85 -92.5 L-286.4 -111.65 Q-266.3 -121.3 -247.0 -131.8 L-227.7 -142.25 Q-214.4 -149.4 -201.45 -156.8 -193.1 -161.6 -185.2 -166.95 -167.8 -178.8 -147.5 -187.8 -142.15 -190.15 -136.6 -191.9 L-125.4 -195.35 Q-121.9 -196.4 -118.95 -197.75 -108.85 -202.35 -99.75 -208.3 -86.5 -217.0 -71.4 -223.5 -62.75 -227.25 -53.65 -230.15 -53.8 -228.55 -51.85 -229.55 -51.65 -229.65 -51.65 -230.15 -46.75 -232.05 -40.65 -231.85 L-30.7 -231.25 -27.65 -231.15 -24.8 -231.6 Q-24.65 -231.65 -24.65 -232.15 L-10.7 -230.55 Q3.0 -229.8 15.3 -227.0 L25.25 -225.4 39.35 -223.25 Q46.1 -221.9 54.35 -222.15 54.85 -221.65 55.45 -221.35 L56.35 -221.15 69.35 -220.25 70.35 -220.15 Q70.85 -219.65 71.45 -219.35 L72.35 -219.15 Q86.3 -218.1 101.35 -218.65 L102.25 -218.6 125.35 -217.65 Q138.35 -218.15 151.35 -218.15 L152.35 -218.15 153.35 -218.15 154.35 -218.15 155.35 -218.15 155.35 -219.15 158.2 -218.7 158.35 -218.15 Q173.95 -217.85 186.35 -217.85 211.35 -217.85 240.35 -218.15 241.35 -218.15 242.15 -218.55 242.35 -218.65 242.35 -219.15 L284.35 -217.15 Q292.3 -216.6 299.35 -215.15 300.35 -215.15 301.15 -215.55 L301.35 -216.15 306.4 -218.0 307.35 -218.15 308.45 -217.35 309.35 -217.15 Q318.1 -218.1 328.35 -216.25 L329.35 -216.15 330.45 -215.35 331.35 -215.15 332.35 -215.15 333.35 -215.15 334.35 -215.15 335.35 -215.15 336.35 -215.15 347.35 -215.15 348.35 -215.15 Q348.25 -213.55 350.4 -214.05 L351.35 -214.15 382.35 -212.2 383.35 -212.15 384.45 -211.35 385.35 -211.15 386.35 -211.15 387.35 -211.15 Q407.35 -210.15 426.3 -207.65 L426.35 -207.15 Q429.6 -200.9 430.85 -192.2 L431.35 -192.15 Q438.05 -186.85 447.45 -184.65 453.05 -183.35 457.5 -181.5 463.6 -178.95 466.35 -182.15 467.55 -184.35 462.45 -185.5 L461.25 -185.9 448.15 -191.65 445.45 -192.55 Q439.9 -194.2 438.35 -200.15 439.15 -204.35 442.45 -205.95 L443.35 -206.15 453.35 -206.15 454.35 -206.15 Q454.25 -204.55 456.15 -205.55 L456.35 -206.15 Q458.3 -206.1 459.5 -205.4 459.85 -205.15 460.35 -205.15 L462.15 -205.55 462.35 -206.15 Q481.35 -207.65 490.55 -199.4 490.85 -199.15 491.35 -199.15 L497.2 -185.1 497.35 -184.15 Q497.35 -183.15 497.75 -182.35 L498.35 -182.15 497.9 -176.2 Q495.8 -162.2 489.35 -152.15 484.4 -150.55 480.65 -147.75 463.9 -135.1 435.35 -134.15 L434.35 -134.15 433.35 -134.15 433.35 -133.15 432.35 -133.25 Q425.45 -134.75 416.35 -134.15 L416.2 -134.7 413.35 -135.15 Q399.8 -135.6 390.25 -139.9 386.05 -141.8 383.35 -140.15 379.6 -134.9 373.3 -132.3 366.5 -129.5 358.6 -127.3 347.6 -124.2 334.0 -123.2 L333.5 -122.95 333.35 -122.85 331.45 -122.25 329.95 -122.15 329.35 -122.2 329.35 -122.15 307.35 -122.3 Q296.15 -122.45 287.5 -125.6 281.65 -127.75 276.35 -127.15 L275.6 -126.9 Q273.0 -124.5 271.35 -121.15 268.4 -120.6 266.35 -119.2 263.65 -117.35 260.25 -116.7 L246.2 -113.8 236.25 -111.9 226.5 -110.3 Q213.45 -108.0 203.05 -109.05 L202.75 -108.85 Q202.3 -108.5 201.7 -108.3 L196.25 -108.15 195.35 -108.5 195.35 -108.15 194.35 -108.15 184.45 -108.15 184.35 -107.7 Q184.2 -107.05 183.5 -107.0 L182.05 -107.15 181.35 -107.15 Q167.35 -106.8 153.35 -107.15 L153.35 -107.2 151.35 -107.3 151.35 -107.15 150.35 -107.15 149.35 -107.15 149.35 -107.5 147.35 -107.7 147.35 -107.15 146.4 -107.3 Q136.5 -110.3 125.35 -112.15 L125.3 -112.55 123.35 -112.65 123.35 -112.15 Q122.85 -112.15 122.5 -112.4 117.4 -116.1 112.35 -115.15 L111.65 -114.9 Q107.2 -109.4 112.35 -107.15 114.0 -105.8 116.2 -104.85 119.85 -103.2 119.3 -102.2 117.0 -98.0 114.35 -94.15 113.7 -91.5 116.4 -91.85 121.05 -92.5 124.4 -94.05 129.2 -96.3 135.35 -97.15 141.3 -94.6 149.35 -94.3 157.25 -94.05 163.35 -92.15 L164.5 -90.25 Q168.15 -84.95 173.1 -80.85 179.1 -75.9 183.9 -69.6 190.35 -61.15 197.75 -53.55 L212.7 -38.5 Q227.65 -23.95 240.85 -7.75 254.1 8.6 262.35 29.85 262.4 34.9 260.9 38.65 252.55 59.55 242.35 78.85 233.65 59.05 214.0 50.6 193.1 41.6 172.2 33.25 166.7 31.0 162.35 27.85 162.4 25.9 163.35 24.85 164.35 23.85 164.35 22.85 164.4 21.8 165.1 20.2 167.45 15.1 164.35 12.85 L164.1 13.55 Q158.05 18.55 154.35 25.85 151.35 24.85 148.55 23.4 129.25 13.45 104.35 8.85 100.75 0.95 96.5 -6.25 95.35 -8.15 93.85 -9.7 84.8 -19.1 83.35 -36.15 82.85 -36.15 82.55 -36.4 79.4 -39.2 79.35 -45.15 L79.5 -46.1 Q81.9 -52.6 85.35 -58.15 L85.55 -59.05 Q87.45 -62.9 84.35 -64.15 80.85 -60.65 79.1 -55.85 77.05 -50.45 75.35 -45.15 74.8 -42.25 75.6 -40.65 77.2 -40.0 77.1 -37.75 77.05 -36.3 76.55 -35.0 76.35 -34.35 75.65 -34.45 L75.35 -34.5 75.35 -34.15 77.5 -17.15 Q77.85 -14.15 79.05 -11.5 83.05 -2.85 84.35 8.85 L77.35 9.05 24.95 12.65 24.45 13.1 21.65 13.65 20.35 13.75 18.35 13.7 18.35 13.85 Q9.85 13.85 1.4 14.3 L0.4 14.35 Q-7.55 13.95 -16.6 14.55 L-29.5 13.95 -54.7 10.0 -55.65 9.8 Q-56.0 3.7 -57.65 -0.15 -42.3 -5.3 -31.9 -15.4 -31.65 -15.65 -31.65 -16.15 L-8.7 -15.25 -5.7 -15.55 -5.35 -15.6 -4.9 -16.05 -4.3 -16.15 -4.3 -16.2 -3.45 -16.15 -1.65 -15.95 -1.65 -16.15 Q8.5 -17.0 15.7 -20.4 L19.15 -21.75 39.35 -28.2 Q44.6 -29.9 49.25 -32.35 L50.35 -33.15 Q48.85 -36.75 44.1 -34.85 L40.55 -33.55 Q22.2 -27.3 -0.65 -25.15 L-0.65 -25.35 Q-2.4 -25.2 -3.65 -26.05 L-3.65 -25.15 Q-4.7 -26.1 -6.65 -26.0 -14.9 -25.4 -19.65 -28.15 -17.75 -32.75 -13.6 -35.05 -9.7 -37.2 -8.65 -42.15 L-10.55 -41.85 -11.75 -41.4 Q-13.65 -40.65 -15.0 -39.45 -30.65 -25.65 -52.4 -17.45 -58.5 -15.15 -64.65 -17.15 -61.65 -22.15 -57.6 -26.1 -53.6 -30.1 -51.65 -36.15 L-52.35 -35.9 Q-59.1 -27.6 -67.65 -21.15 L-68.7 -21.35 Q-69.55 -25.75 -72.55 -27.35 -73.15 -27.65 -73.4 -28.25 -74.95 -32.3 -77.65 -30.15 -78.15 -29.65 -78.1 -29.2 -77.65 -24.65 -76.75 -20.15 -76.0 -16.3 -74.9 -13.05 -72.0 -4.8 -72.65 6.85 L-76.55 6.45 -77.75 6.2 Q-85.25 4.45 -91.85 2.5 -114.95 -4.35 -133.6 -15.3 -152.15 -26.15 -171.35 -36.65 -176.95 -39.75 -183.65 -37.15 -184.55 -33.25 -180.65 -33.2 -179.6 -33.2 -177.9 -32.5 -167.5 -28.3 -158.35 -22.7 -139.95 -11.35 -121.4 -0.6 L-119.85 0.25 Q-100.0 9.7 -77.75 17.1 -65.45 21.15 -50.6 22.2 -46.5 22.5 -43.45 21.45 L-42.6 21.45 Q-28.25 23.5 -15.65 23.15 L8.45 24.3 9.35 24.35 Q29.75 24.25 47.35 22.0 60.8 20.3 76.35 20.35 L77.4 20.3 103.0 19.4 103.1 19.35 103.75 19.25 103.75 19.2 106.75 19.55 112.35 19.85 112.35 20.05 114.35 20.2 114.35 19.85 Q126.5 22.7 136.65 27.15 147.35 31.85 157.5 36.45 L159.25 37.2 Q180.6 45.1 201.6 53.2 L205.15 54.45 Q211.2 56.5 218.35 57.85 221.95 63.7 226.95 68.25 230.35 71.35 233.35 74.85 235.25 81.45 236.3 88.85 L236.35 89.85 235.35 89.85 235.35 90.85 235.35 91.85 235.35 92.85 Q235.6 113.1 230.35 127.85 L229.5 128.05 Q223.35 131.85 219.35 137.85 216.4 138.4 214.25 139.65 207.2 143.7 199.15 146.15 187.7 149.7 173.35 149.85 L172.35 149.85 170.35 149.85 170.35 150.85 169.35 150.85 Q154.6 151.1 140.35 150.85 140.35 150.35 140.15 150.25 L138.35 149.85 137.35 149.85 103.35 149.85 103.35 149.7 102.7 149.65 Q102.1 149.5 102.05 148.9 L101.35 148.85 100.35 148.9 Q97.0 149.2 95.35 147.85 L95.2 147.3 92.35 146.85 65.4 140.55 Q53.95 137.75 41.2 136.0 38.45 136.4 35.8 136.1 L34.75 135.9 34.5 135.85 Q34.15 135.75 34.1 135.35 34.05 135.05 34.15 134.85 L33.35 134.85 Q24.75 134.65 17.7 132.85 L12.95 132.45 -1.25 132.0 -3.0 132.3 Q-8.65 134.0 -14.55 134.1 L-14.65 134.1 -19.2 135.8 Q-19.75 136.9 -22.45 137.55 L-28.75 139.55 Q-33.9 141.55 -39.85 142.6 L-40.65 143.3 Q-41.25 143.7 -42.1 143.75 L-42.85 143.8 -43.65 143.85 -44.65 143.95 -46.65 144.1 Q-51.7 144.65 -56.6 146.1 L-60.0 146.3 Q-63.85 147.55 -67.4 149.35 -72.25 151.75 -77.8 153.35 -79.65 153.85 -81.35 154.6 -91.5 159.0 -103.65 161.85 L-103.95 161.85 -104.65 162.5 -105.6 162.6 -105.65 162.6 -105.65 162.85 -106.6 163.0 Q-115.5 166.6 -129.65 169.85 L-129.95 169.85 -130.65 170.5 -131.6 170.65 -131.65 170.65 -131.65 170.85 Q-137.65 173.35 -144.5 175.35 L-156.9 178.95 Q-180.3 185.7 -200.5 195.15 -220.5 204.5 -242.65 211.85 L-243.65 211.85 -244.65 211.85 -244.65 212.85 -245.65 212.9 -270.65 213.85 -271.65 213.85 -272.65 213.85 -272.65 214.85 -273.65 214.9 -307.65 216.85 -308.65 216.85 -310.65 216.85 -311.6 217.0 Q-314.1 217.85 -317.65 217.85 L-318.65 217.85 -320.65 217.85 -320.65 218.85 -321.65 218.85 -325.65 218.85 -326.65 218.85 -327.65 218.85 -327.65 219.85 -328.65 219.85 -333.65 219.85 -334.65 219.85 -335.65 219.85 -335.65 220.85 Q-342.4 221.65 -348.65 222.95 -354.35 224.15 -357.65 227.85 -358.35 232.55 -353.65 231.9 L-352.65 231.85 -350.85 231.45 Q-350.65 231.35 -350.65 230.85 -329.3 232.0 -306.65 231.85 L-305.65 231.85 -304.55 232.65 -303.65 232.85 -301.65 232.85 -300.65 232.85 -299.65 232.85 -298.65 232.85 -296.85 232.45 Q-296.65 232.35 -296.65 231.85 -283.25 232.1 -268.65 231.85 L-267.65 231.85 -266.65 231.85 -265.65 231.85 -262.8 231.4 Q-262.65 231.35 -262.65 230.85 -256.4 230.1 -253.15 232.35 L-253.75 232.5 -259.65 233.85 -260.65 233.85 -262.65 233.85 -262.65 234.85 -263.6 235.0 -268.65 235.85 -269.65 235.85 -270.65 235.85 -270.65 236.85 Q-277.2 237.3 -282.75 238.4 -285.15 238.85 -287.4 239.6 -294.15 241.85 -304.65 241.35 L-305.6 241.3 -316.65 241.85 -317.65 241.85 -318.65 241.85 -318.65 242.85 -319.65 242.8 Q-326.65 242.35 -331.65 243.85 L-331.85 243.25 -333.65 242.85 -333.65 243.85 -334.65 243.85 -345.65 243.85 -346.55 243.65 -347.65 242.85 -348.65 242.85 -368.65 241.85 -369.6 241.95 Q-371.8 242.5 -371.65 240.85 L-396.65 236.75 Q-409.2 234.9 -420.65 231.85 L-421.55 231.65 -422.65 230.85 -423.65 230.85 -432.65 230.85 -433.65 230.85 -434.65 230.85 -435.65 230.85 -436.65 230.85 -436.85 230.25 Q-437.65 229.85 -438.65 229.85 L-438.65 230.85 -439.65 230.75 Q-445.25 229.45 -455.65 229.85 -455.65 229.35 -455.85 229.25 L-457.65 228.85 -458.65 228.85 -459.65 228.85 -460.65 228.85 -461.65 228.8 Q-464.4 228.65 -465.65 229.85 L-466.65 229.85 -467.65 229.85 -467.65 228.85 -468.65 228.85 -470.65 228.85 -470.65 229.85 -471.65 229.85 -480.65 229.85 Q-480.65 229.35 -480.8 229.3 L-483.65 228.85 -484.65 228.85 -486.65 228.85 Q-486.65 229.35 -486.85 229.45 -487.65 229.85 -488.65 229.85 L-489.65 229.85 -491.65 229.85 -492.65 229.9 -505.65 230.85 -505.85 231.45 -507.65 231.85 -514.7 232.6 -517.75 233.0 Q-524.8 233.7 -530.55 235.2 -538.25 237.25 -547.65 237.85 L-547.85 238.45 -549.65 238.85 -550.65 238.85 -554.65 238.85 M86.35 -119.15 L85.35 -119.15 84.35 -119.15 83.35 -119.15 82.35 -119.15 82.35 -118.15 Q74.65 -116.85 68.55 -113.75 62.75 -110.75 56.95 -107.95 46.6 -102.9 40.35 -94.15 L39.35 -94.1 Q31.5 -93.0 27.35 -88.15 28.85 -84.55 33.55 -86.7 L54.2 -96.45 Q59.15 -98.85 63.7 -101.5 67.35 -103.65 71.15 -105.55 L73.35 -107.15 Q78.6 -106.4 81.45 -107.95 L82.35 -108.15 Q85.4 -110.1 87.0 -113.85 L88.05 -115.45 Q90.85 -118.6 86.35 -119.15 M181.5 134.85 L181.5 134.8 Q182.6 134.5 183.5 134.8 184.35 134.3 184.65 133.6 186.1 129.6 183.3 129.1 171.65 127.05 163.35 121.85 162.7 117.9 162.85 111.85 L162.9 110.95 Q164.15 103.65 165.95 96.75 169.3 84.1 166.9 69.9 165.9 63.8 161.35 60.85 158.2 63.2 159.1 69.9 L159.5 72.95 Q160.1 80.1 159.5 86.85 158.05 104.05 150.35 114.85 L148.3 115.65 Q144.75 116.75 142.35 118.85 143.85 124.35 146.7 128.6 L147.35 128.85 152.55 128.55 154.4 128.75 161.2 131.25 Q168.85 133.85 178.35 134.7 L181.35 134.85 181.35 134.9 181.5 134.85 M71.35 159.85 Q83.95 162.25 98.35 162.8 105.6 163.1 111.5 164.15 L119.3 165.25 Q141.65 167.55 167.35 166.85 L168.35 166.85 169.35 166.85 180.15 164.1 189.35 163.85 186.15 167.7 Q181.15 173.15 176.9 179.2 L171.65 186.3 157.05 204.4 Q150.2 212.7 137.45 215.25 131.45 216.45 126.15 218.3 121.85 219.85 117.3 220.5 L90.35 223.85 89.35 223.85 88.35 223.85 88.35 224.85 87.35 224.95 Q80.1 226.6 71.35 226.85 L71.2 225.9 Q68.75 216.95 65.35 208.85 L64.6 208.6 Q55.85 200.35 38.35 200.85 38.35 200.35 38.15 200.25 L36.35 199.85 36.35 200.85 35.35 200.85 35.35 201.85 35.35 202.85 34.35 202.85 Q34.35 203.85 34.75 204.65 34.85 204.85 35.35 204.85 L36.4 205.45 42.2 206.5 Q49.9 208.3 57.35 210.85 L58.05 211.1 Q61.15 214.55 60.35 221.85 60.9 225.4 58.5 226.25 L53.45 228.15 Q48.9 229.9 43.35 230.95 33.4 232.85 21.35 233.35 L20.55 233.45 13.55 233.15 7.35 231.85 7.15 230.95 6.35 229.85 Q6.55 220.55 12.5 217.15 18.3 213.8 19.35 205.85 L18.4 206.0 Q5.65 209.65 0.35 220.85 L0.35 222.85 0.35 223.85 -0.65 223.85 -0.65 224.85 -0.65 225.85 Q-0.95 227.55 -3.3 226.25 -22.05 215.75 -20.65 184.85 -18.85 182.2 -18.65 177.85 L-18.65 176.85 Q-14.9 174.6 -13.05 170.1 -12.15 167.85 -10.35 166.2 -3.25 159.8 6.35 155.85 7.35 155.85 8.15 155.45 8.35 155.35 8.35 154.85 L10.35 154.85 11.35 154.85 Q12.35 154.85 13.15 154.45 L13.35 153.85 Q23.3 152.8 31.4 150.0 L32.35 149.85 Q41.65 152.05 49.45 155.65 L50.35 155.85 51.45 156.65 52.35 156.85 Q56.6 156.1 57.25 158.9 L57.35 159.3 58.7 159.15 59.6 159.05 60.35 159.1 Q63.65 156.8 68.4 158.7 L69.35 158.85 70.45 159.65 71.35 159.85 M-13.65 242.85 Q-27.0 240.7 -36.9 235.25 L-38.15 234.35 Q-45.5 226.7 -47.65 213.85 L-47.65 212.85 -47.65 211.85 -47.65 210.85 -47.65 203.85 Q-42.0 188.0 -30.45 178.1 -30.15 177.85 -29.65 177.85 -28.55 180.0 -30.15 184.05 -33.25 191.75 -32.8 202.85 -32.65 206.35 -32.65 209.85 -28.15 219.35 -22.85 227.95 -17.45 236.65 -8.65 241.85 -1.85 242.6 4.3 244.1 L6.35 244.85 6.1 245.6 5.35 245.85 5.35 246.85 Q0.8 247.4 -1.35 245.5 -2.15 244.85 -2.7 244.8 L-11.65 243.85 Q-11.65 243.35 -11.85 243.25 -12.65 242.85 -13.65 242.85 M-42.65 138.85 L-42.4 139.6 Q-40.75 141.3 -42.65 138.85 M-60.65 197.85 Q-61.1 214.9 -57.75 230.85 L-57.65 231.85 Q-54.1 234.3 -52.8 238.9 -52.65 239.35 -52.65 239.85 -47.9 242.1 -46.15 246.85 L-46.65 246.85 Q-60.35 242.55 -70.8 235.1 L-71.65 234.85 Q-77.25 221.4 -78.6 207.85 L-78.65 206.85 Q-74.55 199.95 -69.25 194.25 -63.7 188.3 -55.65 184.85 -55.0 187.05 -56.75 191.25 -57.95 194.05 -59.2 196.1 L-60.05 197.65 -60.65 197.85" fill="#ffffff" fill-rule="evenodd" stroke="none"/>
  </g>
</svg>
